<svg version="1.1" xmlns="http://www.w3.org/2000/svg" viewBox="0 0 171.4320433530484 171.92691931171862" width="171.4320433530484" height="171.92691931171862">
  <!-- svg-source:excalidraw -->
  

  <g stroke-linecap="round" transform="translate(15.34115471877277 13.341154718772884) rotate(0 71.50957602782847 71.50957602782847)"><path d="M32 0 C51.12 4.47, 61.57 -0.7, 111.02 0 M32 0 C46.24 1.09, 65.53 0.57, 111.02 0 M111.02 0 C133.55 2.77, 141.12 12.62, 143.02 32 M111.02 0 C134.6 -3.16, 142.87 7.54, 143.02 32 M143.02 32 C141 63.93, 146.14 94.33, 143.02 111.02 M143.02 32 C143.1 60.33, 141.65 92.87, 143.02 111.02 M143.02 111.02 C144.11 132.69, 128.83 139.37, 111.02 143.02 M143.02 111.02 C146.01 133.05, 133.81 140.73, 111.02 143.02 M111.02 143.02 C83.2 140.54, 64.47 146.75, 32 143.02 M111.02 143.02 C92.08 142.68, 71.34 143.5, 32 143.02 M32 143.02 C10.87 140.01, 1.58 134.65, 0 111.02 M32 143.02 C7.27 144.63, 1.27 129.49, 0 111.02 M0 111.02 C-3.17 89.42, -1.31 59.75, 0 32 M0 111.02 C-0.44 87.6, -0.75 67.26, 0 32 M0 32 C3.11 9.49, 13.85 3.69, 32 0 M0 32 C2.6 9.9, 7.83 1.5, 32 0" stroke="#1e1e1e" stroke-width="2" fill="none"></path></g><g stroke-linecap="round" transform="translate(10 10) rotate(0 75.7160216765242 75.96345965585931)"><path d="M32 0 C64.17 -3.5, 94.69 -0.39, 119.43 0 M32 0 C49.78 -0.2, 68.01 0.04, 119.43 0 M119.43 0 C142.55 -1.56, 154.44 8.52, 151.43 32 M119.43 0 C138.75 -1.46, 151.79 14.08, 151.43 32 M151.43 32 C154.82 61.08, 155.99 88.37, 151.43 119.93 M151.43 32 C152.91 57.77, 153.82 87.46, 151.43 119.93 M151.43 119.93 C147.98 141.78, 137.62 149.56, 119.43 151.93 M151.43 119.93 C155.5 142.14, 138.56 149.76, 119.43 151.93 M119.43 151.93 C100.54 148.39, 79.31 152.65, 32 151.93 M119.43 151.93 C98.71 153.65, 79.21 152.61, 32 151.93 M32 151.93 C12.81 149.17, 1.24 140.58, 0 119.93 M32 151.93 C11.39 151.24, -4.05 138.98, 0 119.93 M0 119.93 C2.28 99.3, -0.92 69.84, 0 32 M0 119.93 C2.91 100.92, -0.29 79.45, 0 32 M0 32 C-0.77 14.27, 6.67 -2.27, 32 0 M0 32 C2.92 9.84, 14.94 -1.02, 32 0" stroke="#1e1e1e" stroke-width="2" fill="none"></path></g></svg>